<svg width="103" height="31" viewBox="0 0 103 31" fill="none" xmlns="http://www.w3.org/2000/svg">
<path d="M0 0H3.73884L10.8168 11.9254V0H13.6621V16.4926H10.417L2.84528 3.85211V16.4926H0V0Z" fill="#010B24"/>
<path d="M19.9646 0H30.4757V2.42199H23.092V6.94303H29.0177V9.24969H23.092V14.0706H30.8754V16.4926H19.9646V0Z" fill="#010B24"/>
<path d="M41.1018 14.0706C42.9673 14.0706 44.3625 13.5785 45.2874 12.5943C46.2123 11.5948 46.6748 10.1647 46.6748 8.30396V8.11943C46.6748 4.32113 44.8092 2.42199 41.0782 2.42199H39.2676V14.0706H41.1018ZM36.1401 0H41.2428C44.0803 0 46.2358 0.730441 47.7094 2.19132C49.1987 3.63683 49.9433 5.59748 49.9433 8.07329V8.28089C49.9433 10.7721 49.1987 12.7635 47.7094 14.2551C46.2201 15.7468 44.0489 16.4926 41.1958 16.4926H36.1401V0Z" fill="#010B24"/>
<path d="M53.2706 0H56.5392L60.9129 13.3786L65.3102 0H68.2495L62.559 16.4926H58.9377L53.2706 0Z" fill="#010B24"/>
<path d="M73.1529 0H83.664V2.42199H76.2804V6.94303H82.2061V9.24969H76.2804V14.0706H84.0638V16.4926H73.1529V0Z" fill="#010B24"/>
<path d="M93.6552 8.02716L88.623 0H92.1502L95.7245 5.8589L99.2752 0H102.497L97.5351 7.95796L102.92 16.4926H99.3458L95.3953 10.057L91.4448 16.4926H88.2468L93.6552 8.02716Z" fill="#010B24"/>
<path d="M3.63768 31C2.53346 31 1.66244 30.6636 1.0246 29.9908C0.393623 29.3113 0.0781333 28.43 0.0781333 27.3468V27.2661C0.0781333 26.2031 0.40734 25.3251 1.06575 24.6322C1.73102 23.9325 2.58833 23.5827 3.63768 23.5827C4.41954 23.5827 5.08824 23.7744 5.64378 24.1579C6.19932 24.5346 6.52852 25.1065 6.6314 25.8735H5.73637C5.54433 24.8105 4.85163 24.279 3.65825 24.279C2.82152 24.279 2.16997 24.5515 1.70359 25.0964C1.23721 25.6346 1.00403 26.3545 1.00403 27.256V27.3367C1.00403 28.2517 1.23036 28.975 1.68301 29.5064C2.13567 30.0312 2.78723 30.2936 3.63768 30.2936C4.39897 30.2936 4.97165 30.0817 5.35572 29.6578C5.7398 29.234 5.93869 28.6789 5.95241 27.9927H3.80228V27.2661H6.82687V27.801C6.82687 28.8236 6.53538 29.6141 5.95241 30.1725C5.3763 30.7242 4.60472 31 3.63768 31Z" fill="#010B24"/>
<path d="M25.1215 23.6937H27.3333C28.0946 23.6937 28.7119 23.8585 29.1851 24.1882C29.6652 24.5178 29.9052 25.0224 29.9052 25.7019V25.7423C29.9052 26.3007 29.7372 26.7447 29.4011 27.0744C29.0651 27.3973 28.6261 27.6092 28.0843 27.7101L30.3373 30.9092H29.3394L27.1481 27.7707H26.0165V30.9092H25.1215V23.6937ZM27.395 27.0744C28.4718 27.0744 29.0102 26.6303 29.0102 25.7423V25.7019C29.0102 25.231 28.873 24.8979 28.5987 24.7028C28.3244 24.501 27.9231 24.4001 27.395 24.4001H26.0165V27.0744H27.395Z" fill="#010B24"/>
<path d="M51.5494 30.2734C52.3587 30.2734 52.9999 30.0009 53.4732 29.456C53.9532 28.911 54.1933 28.1979 54.1933 27.3166V27.2358C54.1933 26.4016 53.9532 25.7053 53.4732 25.1469C52.9931 24.5885 52.3449 24.3093 51.5288 24.3093C50.692 24.3093 50.0336 24.5817 49.5535 25.1267C49.0734 25.6649 48.8334 26.3747 48.8334 27.256V27.3367C48.8334 28.1979 49.0906 28.9043 49.605 29.456C50.1262 30.0009 50.7743 30.2734 51.5494 30.2734ZM51.5494 31C50.4794 31 49.605 30.6502 48.926 29.9505C48.247 29.2441 47.9075 28.3762 47.9075 27.3468V27.2661C47.9075 26.2233 48.2436 25.3521 48.9157 24.6524C49.5947 23.9527 50.4657 23.6028 51.5288 23.6028C52.5918 23.6028 53.456 23.9527 54.1213 24.6524C54.7865 25.3453 55.1192 26.2098 55.1192 27.2459V27.3267C55.1192 28.3627 54.7865 29.234 54.1213 29.9404C53.456 30.6468 52.5987 31 51.5494 31Z" fill="#010B24"/>
<path d="M75.9851 31C75.1347 31 74.4797 30.7679 74.0202 30.3037C73.5675 29.8327 73.3412 29.1566 73.3412 28.2753V23.6937H74.2362V28.1744C74.2362 28.9211 74.3734 29.4593 74.6477 29.789C74.9289 30.1119 75.3816 30.2734 76.0057 30.2734C76.6367 30.2734 77.1065 30.1119 77.4151 29.789C77.7238 29.4661 77.8781 28.8841 77.8781 28.0432V23.6937H78.7731V28.1643C78.7731 29.0658 78.5399 29.7655 78.0735 30.2633C77.6072 30.7544 76.911 31 75.9851 31Z" fill="#010B24"/>
<path d="M97.3528 23.6937H99.4412C100.196 23.6937 100.813 23.8686 101.293 24.2184C101.773 24.5616 102.013 25.0897 102.013 25.8028V25.8432C102.013 26.5698 101.773 27.108 101.293 27.4578C100.82 27.801 100.202 27.9725 99.4412 27.9725H98.2478V30.9092H97.3528V23.6937ZM99.5029 27.2762C100.031 27.2762 100.432 27.1551 100.707 26.9129C100.981 26.664 101.118 26.3074 101.118 25.8432V25.8028C101.118 24.8677 100.58 24.4001 99.5029 24.4001H98.2478V27.2762H99.5029Z" fill="#010B24"/>
</svg>
